<svg xmlns="http://www.w3.org/2000/svg" xml:space="preserve" viewBox="0 0 106 48"><clipPath id="a"><path d="M0 0h105.308v48H0z"/></clipPath><g clip-path="url(#a)"><path d="m35.663 0 .21.21v35.558l-.21.21H18.041l-.21-.21V18.041H0v-.104Q17.753 0 18.041 0zm5.406 0h17.622l6.084 5.979h5.769l.21.209v5.769l5.874 5.979v.105H59.006l17.726 17.832-.105.105H41.069l-.21-.21V.21zm20.769 9.021v5.874h5.874V9.021zm19.66 2.963h23.601l.209.21v35.559l-.209.209H93.455l-.209-.209 11.747-11.749H81.497l-.21-.209V12.194z" style="fill:#fff;"/></g></svg>
